<svg width="512" height="512" viewBox="0 0 512 512" fill="none" xmlns="http://www.w3.org/2000/svg">
<path d="M264.695 190.918C272.087 202.024 266.148 217.789 250.644 222.632L235.376 227.4C225.409 230.514 213.774 224.95 203.897 214.008C201.204 211.024 198.031 208.213 194.353 206.15C182.797 199.665 169.332 197.435 156.301 199.847C143.271 202.259 131.497 209.161 123.032 219.352C114.566 229.544 109.945 242.38 109.975 255.627C110.005 268.874 114.683 281.689 123.195 291.843C131.706 301.997 143.51 308.845 156.551 311.199C169.593 313.552 183.048 311.262 194.575 304.725C198.417 302.546 202.03 299.21 205.151 295.788C215.798 284.117 231.328 279.225 242.173 284.764L252.968 290.278C265.725 296.795 270.175 310.904 263.913 320.973C253.94 337.01 241.045 350.705 225.666 359.425C201.322 373.23 172.902 378.068 145.355 373.097C117.808 368.126 92.8797 353.661 74.909 332.222C56.9385 310.784 47.0631 283.729 47.0003 255.768C46.9375 227.807 56.6912 200.709 74.5652 179.19C92.4394 157.671 117.302 143.094 144.827 138C172.351 132.905 200.792 137.616 225.198 151.311C239.527 159.351 253.5 174.096 264.695 190.918Z" stroke="black" stroke-width="18" stroke-linejoin="round"/>
<path d="M416.859 359.796C407.999 365.244 401.951 368.82 394.548 371.228C387.277 373.593 378.184 374.976 363.503 375C342.241 373.167 324.372 367.417 311.56 359.337C298.66 351.202 291.5 341.164 289.902 330.73C288.877 324.037 290.966 317.462 295.621 310.492C300.352 303.407 307.186 296.735 314.399 290.116L344.513 262.485C350.315 257.162 355.147 254.294 359.689 254.251C365.079 254.201 369.564 255.956 372.641 258.885C375.636 261.735 378 266.362 378 273.5C378 276.592 376.778 279.378 374.193 282.339C371.47 285.458 367.688 288.25 363.34 291.195C362.78 291.575 362.185 291.972 361.567 292.384C358.056 294.728 353.804 297.565 351.009 300.469C349.264 302.281 347.038 305.13 346.381 309.01C345.64 313.387 347.169 317.243 349.54 320.168C353.513 325.069 359.029 326.978 364.225 326.89C369.181 326.807 373.87 324.96 377.599 322.428C383.726 318.269 389.762 313.693 395.083 308.996C401.322 303.49 406.201 296.553 409.204 288.727C411.467 282.832 413.922 274.833 413.37 267.933C412.628 258.645 409.335 249.743 403.854 242.212C398.374 234.681 390.918 228.814 382.311 225.265C373.705 221.715 364.285 220.622 355.095 222.108C345.906 223.593 337.308 227.599 330.254 233.678C324.317 238.795 316.584 238.514 311.937 233.915L296.46 218.598C289.517 211.726 289.491 200.536 296.357 193.633C310.699 181.347 328.138 173.255 346.763 170.244C365.488 167.217 384.684 169.444 402.226 176.678C419.767 183.912 434.972 195.873 446.154 211.238C457.336 226.603 464.058 244.773 465.574 263.734C467.09 282.696 463.34 301.708 454.74 318.663C446.141 335.618 433.029 349.854 416.859 359.796Z" stroke="black" stroke-width="18" stroke-linejoin="round"/>
</svg>
