<svg width="512" height="512" viewBox="0 0 512 512" fill="none" xmlns="http://www.w3.org/2000/svg">
<path d="M86 181C86 128.533 128.533 86 181 86H332C384.467 86 427 128.533 427 181V332C427 384.467 384.467 427 332 427H181C128.533 427 86 384.467 86 332V181Z" stroke="black" stroke-width="18"/>
<path fill-rule="evenodd" clip-rule="evenodd" d="M173.162 435.709C173.056 435.156 173 434.584 173 434V381.854C173 354.792 194.938 332.854 222 332.854H291.299C307.702 332.854 321 319.556 321 303.153C321 286.749 307.702 273.451 291.299 273.451H222C194.938 273.451 173 251.513 173 224.451V206.513C173 179.451 194.938 157.513 222 157.513H290C307.121 157.513 321 143.634 321 126.513V77H332C334.352 77 336.687 77.0781 339 77.2319V126.513C339 153.575 317.062 175.513 290 175.513H222C204.879 175.513 191 189.392 191 206.513V224.451C191 241.572 204.879 255.451 222 255.451H291.299C317.643 255.451 339 276.808 339 303.153C339 329.497 317.643 350.854 291.299 350.854H222C204.879 350.854 191 364.733 191 381.854V434C191 434.687 190.923 435.357 190.777 436H181C178.363 436 175.749 435.902 173.162 435.709Z" fill="black"/>
</svg>
