<svg width="512" height="512" viewBox="0 0 512 512" fill="none" xmlns="http://www.w3.org/2000/svg">
<path d="M192.332 90.5117L249.035 83.3121C278.999 79.5076 308.221 94.5105 322.592 121.078L356.962 129.322C370.545 132.58 378.704 146.47 374.934 159.921C373.616 164.624 371.17 168.935 367.81 172.48L355.346 185.629L429.283 240.304L422.298 250.902L446.66 275.699C457.132 286.358 463 300.703 463 315.646V323.161H452.403L443.805 351.16C431.624 390.825 391.211 414.661 350.605 406.13L307.986 397.177C296.375 394.738 284.618 400.634 279.628 411.398C271.989 427.875 250.057 431.3 237.758 417.937L105.715 274.469C73.7539 239.742 74.0476 186.223 106.388 151.849L138.119 118.124C152.437 102.906 171.603 93.1435 192.332 90.5117Z" stroke="black" stroke-width="18" stroke-linejoin="round"/>
<path d="M297.26 122.817L322.359 117L362.048 127.011C373.046 129.785 379.371 141.316 375.802 152.081C373.947 157.673 369.035 161.695 363.187 162.408L337.312 165.567V154.988H293.176V194.659L337.312 206.921L382.412 247.554H422.206L443.392 270.466C455.355 283.405 462 300.378 462 318H378.376C344.103 318 317.304 288.439 320.654 254.33L322.359 236.975L296.033 230.196C273.058 224.28 257 203.563 257 179.839V173.474C257 149.278 273.689 128.279 297.26 122.817Z" stroke="black" stroke-width="18" stroke-linejoin="round"/>
<path d="M183.501 241.803L192.565 241.803C196.947 241.803 200.5 238.251 200.5 233.869C200.5 229.487 204.052 225.935 208.434 225.935H214.191C221.753 225.935 227.883 232.065 227.883 239.626V250.217C227.883 263.628 217.011 274.5 203.6 274.5L177.151 274.5C162.043 274.5 149.135 263.608 146.593 248.715L138.258 199.88C136.265 188.199 141.104 176.404 150.727 169.489L151.414 168.996C160.053 162.789 171.271 161.445 181.132 165.435L197.334 171.992C202.574 174.112 206.003 179.199 206.003 184.852C206.003 192.513 199.792 198.724 192.13 198.724H186.253C175.345 198.724 166.503 207.567 166.503 218.474L166.503 224.805C166.503 234.193 174.113 241.803 183.501 241.803Z" stroke="black" stroke-width="18" stroke-linejoin="round"/>
</svg>
