<svg width="512" height="512" viewBox="0 0 512 512" fill="none" xmlns="http://www.w3.org/2000/svg">
<path fill-rule="evenodd" clip-rule="evenodd" d="M187.483 131.361L329.872 135.435C379.637 136.859 419.241 177.612 419.241 227.397V294.117C419.241 345.959 376.429 387.563 324.609 386.08L296.123 385.265C297.037 388.638 297.524 392.187 297.524 395.849C297.524 398.392 297.289 400.88 296.84 403.293L324.095 404.073C386.053 405.845 437.241 356.101 437.241 294.117V227.397C437.241 167.871 389.889 119.145 330.387 117.443L187.997 113.368C126.039 111.595 74.8511 161.339 74.8511 223.323V290.043C74.8511 349.569 122.203 398.296 181.705 399.998L217.077 401.01C216.862 399.32 216.751 397.598 216.751 395.849C216.751 391.376 217.478 387.074 218.82 383.053L182.22 382.005C132.455 380.581 92.8511 339.829 92.8511 290.043V223.323C92.8511 171.482 135.663 129.878 187.483 131.361Z" fill="black"/>
<path d="M289 396C289 412.913 274.884 427 257 427C239.116 427 225 412.913 225 396C225 379.087 239.116 365 257 365C274.884 365 289 379.087 289 396Z" stroke="black" stroke-width="18"/>
<circle cx="349" cy="291" r="31" stroke="black" stroke-width="18"/>
<circle cx="163" cy="291" r="31" stroke="black" stroke-width="18"/>
<path d="M408.586 359L453 379.861M383 379.861L408.586 408" stroke="black" stroke-width="18" stroke-linecap="round"/>
<path d="M103.414 359L59 379.861M129 379.861L103.414 408" stroke="black" stroke-width="18" stroke-linecap="round"/>
<path fill-rule="evenodd" clip-rule="evenodd" d="M139.653 123.006C131.167 105.821 113.464 94 93 94C64.2812 94 41 117.281 41 146C41 169.612 56.7378 189.549 78.2961 195.892C76.8144 201.667 75.7895 207.628 75.2628 213.733C45.1917 205.88 23 178.532 23 146C23 107.34 54.3401 76 93 76C121.297 76 145.672 92.7902 156.707 116.951C150.817 118.507 145.117 120.539 139.653 123.006ZM436.378 213.563C466.123 205.491 488 178.3 488 146C488 107.34 456.66 76 418 76C388.377 76 363.053 94.4002 352.831 120.395C358.75 121.804 364.48 123.691 369.981 126.011C377.814 107.214 396.364 94 418 94C446.719 94 470 117.281 470 146C470 169.627 454.242 189.574 432.663 195.904C434.366 201.611 435.618 207.512 436.378 213.563Z" fill="black"/>
</svg>
