<svg width="512" height="512" viewBox="0 0 512 512" fill="none" xmlns="http://www.w3.org/2000/svg">
<path d="M193.866 86C144.787 86 105 123.136 105 168.945V223.135L105.02 270.104L105 327.774C105 387.026 149.453 427 238.299 427C272.56 427 296.65 427 329.306 416.75C338.987 413.711 346.191 407.681 350.382 400.976C357.085 390.253 350.169 375.866 337.806 373.206C327.447 370.977 313.69 372.268 296.65 375.719C268.277 381.465 232.945 379.689 201.896 368.713C189.25 364.243 171.346 350.66 169.412 336.952C169.188 335.366 169.321 333.751 169.839 332.234C171.621 327.008 178.342 315.351 201.896 323.069C252.217 339.558 319.134 328.065 319.134 328.065C352.861 323.069 408 290.93 408 245.12V168.945C408 123.136 368.213 86 319.134 86H193.866Z" stroke="black" stroke-width="18"/>
<path d="M347 269V182.234C347 128.251 270.779 116.562 254.5 168.048M166 269L166 181.059C166 129.182 239.475 118.38 254.5 168.048M254.5 168.048L254.5 232.618" stroke="black" stroke-width="18" stroke-linecap="round" stroke-linejoin="round"/>
</svg>
