<svg width="512" height="512" viewBox="0 0 512 512" fill="none" xmlns="http://www.w3.org/2000/svg">
<path fill-rule="evenodd" clip-rule="evenodd" d="M95.2379 182.246V350.989C95.2379 364.802 106.436 376 120.249 376H121.593C135.406 376 146.603 364.802 146.603 350.989V245.078L164.603 266.756V350.989C164.603 374.743 145.347 394 121.593 394H120.249C96.4945 394 77.2379 374.743 77.2379 350.989V160.011C77.2379 136.257 96.4945 117 120.249 117H121.593C139.006 117 154.002 127.348 160.768 142.23L157.719 138.558C146.429 124.962 126.254 123.092 112.657 134.382L108.18 138.099C105.125 139.786 102.459 142.093 100.354 144.851C90.6382 154.915 88.6789 170.119 95.2379 182.246ZM256.001 267.238V350.989C256.001 374.743 275.258 394 299.012 394H300.356C324.11 394 343.367 374.743 343.367 350.989V160.011C343.367 136.257 324.11 117 300.356 117H299.012C281.203 117 265.923 127.823 259.389 143.251L263.285 138.558C274.575 124.962 294.75 123.092 308.347 134.382L313.839 138.942C315.594 140.067 317.199 141.406 318.618 142.922C330.282 153.074 332.857 169.929 325.367 182.963V350.989C325.367 364.802 314.169 376 300.356 376H299.012C285.199 376 274.001 364.802 274.001 350.989V245.56L256.001 267.238Z" fill="black"/>
<path d="M242.916 282.999L242.766 283.18L242.626 283.368C231.406 298.448 220.17 304.111 210.405 303.998C200.546 303.884 189.103 297.858 177.604 282.704L177.488 282.55L177.365 282.402L94.9677 182.952C82.7799 168.241 84.8026 146.412 99.4739 134.203C114.134 122.003 135.883 124.02 148.061 138.719L200.377 201.862C205.576 208.137 215.199 208.137 220.398 201.862L273.066 138.294C285.05 123.83 306.452 121.846 320.877 133.85L321.725 134.555L327.482 127.637L321.725 134.555C336.162 146.57 338.153 168.051 326.159 182.527L242.916 282.999Z" stroke="black" stroke-width="18"/>
<path d="M367 239C367 222.984 379.984 210 396 210C412.016 210 425 222.984 425 239V356C425 372.016 412.016 385 396 385C379.984 385 367 372.016 367 356V239Z" stroke="black" stroke-width="18"/>
<path d="M425 156C425 172.244 412.239 185 397 185C381.761 185 369 172.244 369 156C369 139.756 381.761 127 397 127C412.239 127 425 139.756 425 156Z" stroke="black" stroke-width="18"/>
</svg>
