<svg width="512" height="512" viewBox="0 0 512 512" fill="none" xmlns="http://www.w3.org/2000/svg">
<circle cx="256" cy="256" r="170" stroke="black" stroke-width="18"/>
<path fill-rule="evenodd" clip-rule="evenodd" d="M196.828 88.2178C201.528 90.4065 206.186 92.8081 210.757 95.4379C249.227 117.574 281.801 156.212 279.696 219.345C279.585 222.688 279.537 225.946 279.549 229.122C306.38 232.395 325.911 227.67 340.15 218.743C355.736 208.971 366.151 193.431 372.598 174.816C377.646 160.245 380.121 144.174 380.797 128.389C386.713 134.129 392.232 140.276 397.31 146.783C395.849 158.36 393.368 169.849 389.607 180.708C382.241 201.974 369.733 221.44 349.711 233.993C331.877 245.174 308.999 250.296 280.392 247.329C282.836 272.864 290.565 291.944 301.281 306.026C313.449 322.017 329.966 332.217 348.586 337.918C369.061 344.186 391.82 344.915 413.245 341.971C409.581 348.677 405.499 355.122 401.034 361.27C381.713 362.475 361.839 360.8 343.317 355.129C321.738 348.523 301.786 336.413 286.957 316.926C274.758 300.895 266.362 280.313 263.093 254.606C241.103 274.519 218.784 305.986 210.418 341.045C205.458 361.831 205.442 383.677 213.066 405.177C216.309 414.322 220.974 423.518 227.348 432.631C218.969 431.255 210.786 429.295 202.843 426.794C200.199 421.637 197.959 416.432 196.101 411.193C187.134 385.903 187.28 360.459 192.909 336.867C202.354 297.29 227.337 262.36 252.061 240.326C223.825 233.123 184.651 232.34 147.964 243.277C122.341 250.916 98.3494 264.115 80.1874 284.526C78.9852 276.902 78.2656 269.118 78.0608 261.206C96.8939 244.345 119.492 232.982 142.821 226.028C184.522 213.596 229.477 214.909 261.575 224.269C261.6 222.448 261.644 220.608 261.706 218.746C263.544 163.608 235.75 130.586 201.78 111.04C192.739 105.838 183.286 101.615 173.883 98.2289C181.244 94.3784 188.908 91.0264 196.828 88.2178Z" fill="black"/>
<path d="M189 206C189 188.327 203.327 174 221 174H290C319.823 174 344 198.177 344 228V243.767C344 273.867 319.6 298.267 289.5 298.267H266.5H253.963H247.695H244.561C242.554 298.267 240.629 299.064 239.211 300.484L238.435 301.26L235.443 304.252L229.46 310.238L217.493 322.208L203.246 335.604L196.123 342.302L192.562 345.651C191.212 346.92 189 345.963 189 344.111V267.2V236.134V206Z" fill="black"/>
</svg>
