<svg width="512" height="512" viewBox="0 0 512 512" fill="none" xmlns="http://www.w3.org/2000/svg">
<path d="M153 124C153 102.461 170.461 85 192 85H209C217.284 85 224 91.7157 224 100V412C224 420.284 217.284 427 209 427H168C159.716 427 153 420.284 153 412V124Z" stroke="black" stroke-width="18"/>
<path d="M287 100C287 91.7157 293.716 85 302 85H344C352.284 85 359 91.7157 359 100V227C359 246.882 342.882 263 323 263H302C293.716 263 287 256.284 287 248V100Z" stroke="black" stroke-width="18"/>
<path d="M287 358C287 349.716 293.716 343 302 343H344C352.284 343 359 349.716 359 358V388C359 409.539 341.539 427 320 427H302C293.716 427 287 420.284 287 412V358Z" stroke="black" stroke-width="18"/>
</svg>
