<svg width="512" height="512" viewBox="0 0 512 512" fill="none" xmlns="http://www.w3.org/2000/svg">
<path d="M412.522 236.615L412.607 236.375L412.679 236.131C418.198 217.34 423.658 188.721 421.527 164.315C420.465 152.144 417.433 139.987 410.613 130.671C403.431 120.861 392.612 115 378.237 115C362.137 115 350.134 119.732 343.448 129.733C337.1 139.228 337.292 151.016 339.287 161.121C343.308 181.49 356.251 202.97 361.29 210.184C362.752 212.277 364.192 215.743 365.31 220.615C366.403 225.378 367.069 230.952 367.324 236.827C367.838 248.68 366.643 260.797 364.599 268.631C362.214 277.771 355.168 301.035 348.637 322.215C348.568 322.44 348.495 322.556 348.458 322.607C348.419 322.66 348.381 322.696 348.338 322.727C348.242 322.795 348.044 322.884 347.76 322.889C347.476 322.895 347.27 322.815 347.163 322.745C347.114 322.714 347.071 322.676 347.028 322.622C346.986 322.569 346.907 322.454 346.828 322.23L296.942 182.137C296.71 181.486 297.193 180.802 297.884 180.802H299.904C309.382 180.802 317.065 173.119 317.065 163.641C317.065 154.163 309.382 146.479 299.904 146.479H213.579C204.101 146.479 196.417 154.163 196.417 163.641C196.417 173.119 204.101 180.802 213.579 180.802H221.144C221.559 180.802 221.931 181.058 222.078 181.446L245.874 243.89C245.958 244.109 245.962 244.352 245.885 244.574L218.489 323.403C218.359 323.779 218.219 323.875 218.16 323.914C218.049 323.989 217.837 324.075 217.547 324.075C217.256 324.076 217.044 323.991 216.932 323.916C216.873 323.877 216.733 323.781 216.601 323.407L166.972 182.133C166.744 181.483 167.226 180.802 167.916 180.802H169.999C179.477 180.802 187.161 173.119 187.161 163.641C187.161 154.163 179.477 146.479 169.999 146.479H105.193C96.8023 146.479 90 153.282 90 161.673C90 163.447 90.3109 165.208 90.9187 166.876L182.811 418.988C188.908 435.716 212.598 435.623 218.564 418.848L262.99 293.929C263.12 293.567 263.257 293.469 263.32 293.426C263.433 293.351 263.641 293.267 263.925 293.265C264.208 293.262 264.418 293.343 264.532 293.417C264.595 293.458 264.735 293.554 264.869 293.915L311.79 419.48C317.993 436.081 341.539 435.9 347.486 419.204L412.522 236.615Z" stroke="black" stroke-width="18" stroke-linecap="round"/>
<path d="M363.864 121.017C334.362 97.2363 296.844 83 256 83C202.377 83 154.485 107.539 122.941 146M313.722 417.075C295.68 423.501 276.248 427 256 427C241.31 427 227.049 425.158 213.437 421.693M181.953 410.289C124.022 382.616 84 323.482 84 255C84 230.461 89.139 207.121 98.3994 186M419.352 201C424.963 217.983 428 236.137 428 255C428 312.721 399.567 363.802 355.943 395" stroke="black" stroke-width="18"/>
</svg>
