<svg width="362" height="367" viewBox="0 0 362 367" fill="none" xmlns="http://www.w3.org/2000/svg">
<path d="M337.522 162.615L337.607 162.375L337.679 162.131C343.198 143.34 348.658 114.721 346.527 90.3153C345.465 78.1444 342.433 65.987 335.613 56.6706C328.431 46.8607 317.612 41 303.237 41C287.137 41 275.134 45.7318 268.448 55.7325C262.1 65.2281 262.292 77.016 264.287 87.1208C268.308 107.49 281.251 128.97 286.29 136.184C287.752 138.277 289.192 141.743 290.31 146.615C291.403 151.378 292.069 156.952 292.324 162.827C292.838 174.68 291.643 186.797 289.599 194.631C287.214 203.771 280.168 227.035 273.637 248.215C273.568 248.44 273.495 248.556 273.458 248.607C273.419 248.66 273.381 248.696 273.338 248.727C273.242 248.795 273.044 248.884 272.76 248.889C272.476 248.895 272.27 248.815 272.163 248.745C272.114 248.714 272.071 248.676 272.028 248.622C271.986 248.569 271.907 248.454 271.828 248.23L221.942 108.137C221.71 107.486 222.193 106.802 222.884 106.802H224.904C234.382 106.802 242.065 99.1186 242.065 89.6407C242.065 80.1628 234.382 72.4794 224.904 72.4794H138.579C129.101 72.4794 121.417 80.1628 121.417 89.6407C121.417 99.1186 129.101 106.802 138.579 106.802H146.144C146.559 106.802 146.931 107.058 147.078 107.446L170.874 169.89C170.958 170.109 170.962 170.352 170.885 170.574L143.489 249.403C143.359 249.779 143.219 249.875 143.16 249.914C143.049 249.989 142.837 250.075 142.547 250.075C142.256 250.076 142.044 249.991 141.932 249.916C141.873 249.877 141.733 249.781 141.601 249.407L91.9721 108.133C91.7437 107.483 92.2263 106.802 92.9156 106.802H94.9993C104.477 106.802 112.161 99.1186 112.161 89.6407C112.161 80.1628 104.477 72.4794 94.9993 72.4794H30.1934C21.8023 72.4794 15 79.2817 15 87.6727C15 89.4474 15.3109 91.2084 15.9187 92.8757L107.811 344.988C113.908 361.716 137.598 361.623 143.564 344.848L187.99 219.929C188.12 219.567 188.257 219.469 188.32 219.426C188.433 219.351 188.641 219.267 188.925 219.265C189.208 219.262 189.418 219.343 189.532 219.417C189.595 219.458 189.735 219.554 189.869 219.915L236.79 345.48C242.993 362.081 266.539 361.9 272.486 345.204L337.522 162.615Z" stroke="black" stroke-width="18" stroke-linecap="round"/>
<path d="M288.864 47.0175C259.362 23.2363 221.844 9 181 9C127.377 9 79.4846 33.539 47.9408 72M238.722 343.075C220.68 349.501 201.248 353 181 353C166.31 353 152.049 351.158 138.437 347.693M106.953 336.289C49.0221 308.616 9 249.482 9 181C9 156.461 14.139 133.121 23.3994 112M344.352 127C349.963 143.983 353 162.137 353 181C353 238.721 324.567 289.802 280.943 321" stroke="black" stroke-width="18"/>
</svg>
