<svg width="521" height="521" viewBox="0 0 521 521" fill="none" xmlns="http://www.w3.org/2000/svg">
<rect x="90" y="90" width="341" height="341" rx="95" stroke="black" stroke-width="18"/>
<path d="M164.546 226.255C158.197 209.278 172.503 195.274 187.401 196.972C193.326 197.679 204.489 202.488 199.674 226.255C190.82 269.967 178.513 306.89 197.135 320.047C212.371 330.812 245.053 326.15 255.964 290.338C261.721 271.443 266.284 242.731 269.14 221.564C269.312 220.29 268.7 220.194 268.546 221.471C264.504 255.167 260.799 309.174 276.703 320.047C295.325 332.778 318.823 325.916 340 297C359.892 269.838 372.252 190.545 326.221 194.972C307.817 196.742 309 215.5 330 207" stroke="black" stroke-width="18" stroke-linecap="round"/>
</svg>
