<svg width="512" height="512" viewBox="0 0 512 512" fill="none" xmlns="http://www.w3.org/2000/svg">
<path fill-rule="evenodd" clip-rule="evenodd" d="M381.833 307.928C362.718 323.205 339.086 333.186 320.545 335.955L320.413 335.977C320.267 336.001 320.058 336.035 319.788 336.078C319.249 336.164 318.467 336.285 317.463 336.432C315.456 336.726 312.557 337.122 308.93 337.543C301.684 338.385 291.501 339.329 279.703 339.745C256.289 340.571 225.74 339.353 199.093 330.621C188.78 327.242 183.942 328.662 181.961 329.726C179.858 330.855 178.84 332.723 178.357 334.14C178.319 334.25 178.286 334.433 178.323 334.695C178.852 338.44 181.949 343.47 187.657 348.607C193.162 353.561 199.791 357.424 204.895 359.228C234.379 369.65 268.056 371.327 294.864 365.898C312.053 362.417 327.39 360.758 339.699 363.407C357.48 367.233 368.384 388.157 358.014 404.746C352.676 413.286 343.714 420.66 332.001 424.337C298.029 435 272.751 435 238.709 435H238.299C192.673 435 157.123 424.753 132.783 405.692C108.158 386.408 96 358.864 96 326.774V167.945C96 116.591 140.411 76 193.866 76H319.134C372.59 76 417 116.591 417 167.945V244.12C417 270.849 400.944 292.655 381.833 307.928ZM356 181.234C356 123.879 283.923 106.7 254.55 147.001C226.317 108.465 157 124.796 157 180.059L157 268C157 272.971 161.029 277 166 277C170.971 277 175 272.971 175 268L175 180.059C175 139.038 232.636 130.01 245.5 168.444V231.618C245.5 236.588 249.529 240.618 254.5 240.618C259.471 240.618 263.5 236.588 263.5 231.618V168.501C277.533 128.215 338 138.061 338 181.234V268C338 272.971 342.029 277 347 277C351.971 277 356 272.971 356 268V181.234Z" fill="black"/>
</svg>
