<svg width="344" height="353" viewBox="0 0 344 353" fill="none" xmlns="http://www.w3.org/2000/svg">
<path fill-rule="evenodd" clip-rule="evenodd" d="M259.257 320.255C309.974 290.341 344 235.144 344 172C344 146.686 338.531 122.649 328.711 101.006C327.662 118.528 323.909 136.432 320.044 149.595L259.257 320.255ZM235.987 331.704L189.3 206.764C186.034 198.024 173.637 198.123 170.511 206.914L126.084 331.832C125.316 333.992 123.99 335.626 122.378 336.734C138.09 341.46 154.748 344 172 344C194.614 344 216.208 339.636 235.987 331.704ZM107.052 331.315C44.2549 305.688 0 244.012 0 172C0 143.061 7.14696 115.791 19.7721 91.8589L107.052 331.315ZM32.4149 71.4794H85.9993C90.5067 71.4794 94.1606 75.1333 94.1606 79.6407C94.1606 84.1481 90.5067 87.802 85.9993 87.802H83.9156C77.0222 87.802 72.1961 94.6127 74.4809 101.116L124.11 242.389C127.247 251.32 139.884 251.298 142.991 242.358L170.386 163.528C171.158 161.306 171.122 158.883 170.284 156.685L146.488 94.241C145.011 90.364 141.293 87.802 137.144 87.802H129.579C125.071 87.802 121.417 84.1481 121.417 79.6407C121.417 75.1333 125.071 71.4794 129.579 71.4794H215.904C220.411 71.4794 224.065 75.1333 224.065 79.6407C224.065 84.1481 220.411 87.802 215.904 87.802H213.884C206.973 87.802 202.145 94.6457 204.464 101.157L254.349 241.249C257.569 250.291 270.41 250.038 273.238 240.867C279.743 219.768 286.861 196.281 289.307 186.904C293.947 169.124 294.237 134.73 284.668 121.03C275.771 108.293 241.556 49.1908 283.41 40.954C253.396 15.413 214.498 0 172 0C114.534 0 63.6498 28.1821 32.4149 71.4794Z" fill="black"/>
<path d="M326.638 151.944L326.704 151.757L326.76 151.567C332.245 132.893 337.635 104.545 335.535 80.4892C334.487 68.4861 331.511 56.7471 324.999 47.852C318.206 38.5731 307.995 33 294.237 33C278.493 33 267.281 37.6154 261.111 46.8441C255.204 55.6799 255.291 66.8136 257.249 76.7335C261.19 96.6974 273.947 117.906 278.929 125.039C280.598 127.428 282.113 131.172 283.26 136.168C284.387 141.079 285.064 146.778 285.322 152.74C285.843 164.745 284.64 177.068 282.534 185.136C280.136 194.329 273.073 217.643 266.549 238.804C265.718 241.497 261.918 241.638 260.944 238.901L211.058 98.8084C210.362 96.8551 211.811 94.802 213.884 94.802H215.904C224.277 94.802 231.065 88.0141 231.065 79.6407C231.065 71.2673 224.277 64.4794 215.904 64.4794H129.579C121.205 64.4794 114.417 71.2673 114.417 79.6407C114.417 88.0141 121.205 94.802 129.579 94.802H137.144C138.389 94.802 139.504 95.5706 139.947 96.7337L163.743 159.177C163.995 159.837 164.005 160.564 163.774 161.23L136.379 240.06C135.447 242.742 131.656 242.748 130.714 240.069L81.0852 98.7963C80.3998 96.8452 81.8476 94.802 83.9156 94.802H85.9993C94.3727 94.802 101.161 88.0141 101.161 79.6407C101.161 71.2673 94.3727 64.4794 85.9993 64.4794H21.1934C13.9069 64.4794 8 70.3863 8 77.6727C8 79.2138 8.26999 80.743 8.79773 82.1908L100.69 334.303C106.145 349.27 127.342 349.187 132.68 334.178L177.106 209.259C178.044 206.622 181.763 206.592 182.743 209.214L229.663 334.78C235.214 349.634 256.281 349.471 261.602 334.533L326.638 151.944Z" stroke="black" stroke-width="14" stroke-linecap="round"/>
</svg>
